<svg xmlns="http://www.w3.org/2000/svg" viewBox="0 0 904 904"><defs><style>.cls-1{fill:#ced5d8;}.cls-2{fill:#a6afb2;}</style></defs><g id="objects"><path class="cls-1" d="M904,452c0,143.23-66.62,270.9-170.57,353.71a452,452,0,0,1-562.86,0C66.62,722.9,0,595.23,0,452,0,202.37,202.37,0,452,0S904,202.37,904,452Z"/><path class="cls-2" d="M627.75,367.12C627.75,481,549.06,519,452,519S276.25,481,276.25,367.12,354.94,161,452,161,627.75,253.28,627.75,367.12Z"/><path class="cls-2" d="M733.43,805.71a452,452,0,0,1-562.86,0C170.57,658,319.29,597,452,597S733.43,674,733.43,805.71Z"/></g></svg>